<svg width="21" height="21" viewBox="0 0 21 21" fill="none" xmlns="http://www.w3.org/2000/svg">
<path d="M9.77023 1.75775C12.1117 -0.585841 15.9107 -0.585842 18.2538 1.7573C20.5369 4.04037 20.5954 7.70558 18.4294 10.0595L18.2413 10.2569L9.44127 19.0551L9.4047 19.0853C7.94346 20.4021 5.68946 20.3574 4.28208 18.95C2.96307 17.631 2.84095 15.5683 3.91573 14.1116C3.93908 14.0662 3.96733 14.0225 4.00054 13.9813L4.05409 13.9217L4.141 13.8339L4.28208 13.6861L4.285 13.6889L11.7207 6.23463C11.9867 5.96801 12.4033 5.94325 12.6972 6.16072L12.7814 6.23322C13.048 6.49913 13.0728 6.91577 12.8553 7.20967L12.7828 7.29388L5.18819 14.907C4.47056 15.7826 4.52044 17.0768 5.33783 17.8942C6.1669 18.7233 7.48655 18.7628 8.36233 18.0127L17.195 9.18221C18.9505 7.42457 18.9505 4.57532 17.1932 2.81796C15.4907 1.11552 12.7636 1.06232 10.9971 2.65836L10.8292 2.81796L10.8167 2.83228L1.28033 12.3686C0.987437 12.6615 0.512563 12.6615 0.21967 12.3686C-0.0465968 12.1023 -0.0708026 11.6857 0.147052 11.3921L0.21967 11.3079L9.76854 1.7573L9.77023 1.75775Z" fill="#8A8A8A"/>
</svg>
