<svg width="11" height="8" viewBox="0 0 11 8" fill="none" xmlns="http://www.w3.org/2000/svg">
<path d="M1.49363 3.96812L3.84045 6.31532C4.01131 6.48618 4.01131 6.76319 3.84045 6.93404C3.68858 7.08591 3.45283 7.10279 3.28232 6.98467L3.22173 6.93404L0.10153 3.81135L0.0580946 3.7491L0.0339074 3.70027L0.0139775 3.64109L0.00970003 3.62296C0.00334707 3.59348 0 3.56268 0 3.53109L0.00477919 3.59577L0.00157234 3.56826L0.00157297 3.49389L0.0146899 3.41837L0.0330682 3.36394L0.0675395 3.29746L0.115228 3.2352L3.22173 0.128141C3.39259 -0.0427136 3.6696 -0.0427136 3.84045 0.128141C3.99232 0.280011 4.0092 0.515758 3.89107 0.686267L3.84045 0.746859L1.49363 3.09312L5.25 3.09359C8.33155 3.09359 10.3997 4.82242 10.4965 7.28696L10.5 7.46859C10.5 7.71022 10.3041 7.90609 10.0625 7.90609C9.82088 7.90609 9.625 7.71022 9.625 7.46859C9.625 5.47957 8.04346 4.05208 5.47883 3.97213L5.25 3.96859L1.49363 3.96812L3.84045 6.31532L1.49363 3.96812Z" fill="#A1AAB3"/>
</svg>
