<svg width="188" height="22" viewBox="0 0 188 22" fill="none" xmlns="http://www.w3.org/2000/svg">
<rect y="15" width="2" height="7" rx="1" fill="white"/>
<rect x="7" y="15" width="2" height="7" rx="1" fill="white"/>
<rect x="3.5" y="15" width="2" height="7" rx="1" fill="white"/>
<rect x="10.5" y="15" width="2" height="7" rx="1" fill="white"/>
<rect x="14" y="11" width="2" height="11" rx="1" fill="white"/>
<rect x="17.5" y="8" width="2" height="14" rx="1" fill="white"/>
<rect x="21" width="2" height="22" rx="1" fill="white"/>
<rect x="63" width="2" height="22" rx="1" fill="white"/>
<rect x="28" width="2" height="22" rx="1" fill="white"/>
<rect x="70" width="2" height="22" rx="1" fill="white"/>
<rect x="35" width="2" height="22" rx="1" fill="white"/>
<rect x="77" width="2" height="22" rx="1" fill="white"/>
<rect x="42" y="2" width="2" height="20" rx="1" fill="white"/>
<rect x="49" width="2" height="22" rx="1" fill="white"/>
<rect x="140" width="2" height="22" rx="1" fill="white"/>
<rect x="56" y="2" width="2" height="20" rx="1" fill="white"/>
<rect x="147" y="6" width="2" height="16" rx="1" fill="white"/>
<rect x="150.5" y="1" width="2" height="21" rx="1" fill="white"/>
<rect x="154" y="9" width="2" height="13" rx="1" fill="white"/>
<rect x="157.5" y="11" width="2" height="11" rx="1" fill="white"/>
<rect x="161" y="14" width="2" height="8" rx="1" fill="white"/>
<rect x="164.5" y="14" width="2" height="8" rx="1" fill="white"/>
<rect x="168" y="10" width="2" height="12" rx="1" fill="white"/>
<rect x="171.5" y="7" width="2" height="15" rx="1" fill="white"/>
<rect x="175" y="8" width="2" height="14" rx="1" fill="white"/>
<rect x="178.5" y="8" width="2" height="14" rx="1" fill="white"/>
<rect x="182" y="9" width="2" height="13" rx="1" fill="white"/>
<rect x="185.5" y="11" width="2" height="11" rx="1" fill="white"/>
<rect x="24.5" width="2" height="22" rx="1" fill="white"/>
<rect x="66.5" width="2" height="22" rx="1" fill="white"/>
<rect x="31.5" width="2" height="22" rx="1" fill="white"/>
<rect x="73.5" width="2" height="22" rx="1" fill="white"/>
<rect x="38.5" width="2" height="22" rx="1" fill="white"/>
<rect x="80.5" width="2" height="22" rx="1" fill="white"/>
<rect x="87.5" width="2" height="22" rx="1" fill="white"/>
<rect x="91" y="2" width="2" height="20" rx="1" fill="white"/>
<rect x="105" y="5" width="2" height="17" rx="1" fill="white"/>
<rect x="94.5" y="5" width="2" height="17" rx="1" fill="white"/>
<rect x="108.5" y="7" width="2" height="15" rx="1" fill="white"/>
<rect x="98" y="7" width="2" height="15" rx="1" fill="white"/>
<rect x="112" y="8" width="2" height="14" rx="1" fill="white"/>
<rect x="101.5" y="11" width="2" height="11" rx="1" fill="white"/>
<rect x="119" y="11" width="2" height="11" rx="1" fill="white"/>
<rect x="126" y="11" width="2" height="11" rx="1" fill="white"/>
<rect x="122.5" y="11" width="2" height="11" rx="1" fill="white"/>
<rect x="129.5" y="11" width="2" height="11" rx="1" fill="white"/>
<rect x="133" y="9" width="2" height="13" rx="1" fill="white"/>
<rect x="115.5" y="8" width="2" height="14" rx="1" fill="white"/>
<rect x="84" y="2" width="2" height="20" rx="1" fill="white"/>
<rect x="45.5" y="2" width="2" height="20" rx="1" fill="white"/>
<rect x="136.5" y="2" width="2" height="20" rx="1" fill="white"/>
<rect x="52.5" width="2" height="22" rx="1" fill="white"/>
<rect x="143.5" width="2" height="22" rx="1" fill="white"/>
<rect x="59.5" width="2" height="22" rx="1" fill="white"/>
</svg>
