<svg width="12" height="14" viewBox="0 0 12 14" fill="none" xmlns="http://www.w3.org/2000/svg">
<path d="M9.75237 8.20257C10.5518 8.20257 11.1998 8.85061 11.1998 9.65001V10.2016H11.1955C11.1684 10.8251 10.9974 11.6071 10.2972 12.246C9.53242 12.9439 8.21224 13.4001 5.99981 13.4001C3.78737 13.4001 2.46719 12.9439 1.70236 12.246C1.00218 11.6071 0.831252 10.8251 0.80407 10.2016H0.799805V9.65001C0.799805 8.85061 1.44784 8.20257 2.24724 8.20257H9.75237ZM3.1998 1.4001C2.53706 1.4001 1.9998 1.93736 1.9998 2.6001V5.8001C1.9998 6.46284 2.53706 7.0001 3.1998 7.0001H8.79981C9.46255 7.0001 9.99981 6.46284 9.99981 5.8001V2.6001C9.99981 1.93736 9.46255 1.4001 8.79981 1.4001H6.39981C6.39981 1.4001 6.39981 1.24697 6.39981 1.0001C6.39981 0.753223 6.22072 0.600098 5.99981 0.600098C5.77889 0.600098 5.59981 0.784473 5.59981 1.0001C5.59981 1.21572 5.59981 1.4001 5.59981 1.4001H3.1998ZM3.5998 4.2001C3.5998 3.75827 3.95798 3.4001 4.39981 3.4001C4.84163 3.4001 5.19981 3.75827 5.19981 4.2001C5.19981 4.64193 4.84163 5.0001 4.39981 5.0001C3.95798 5.0001 3.5998 4.64193 3.5998 4.2001ZM6.79981 4.2001C6.79981 3.75827 7.15798 3.4001 7.59981 3.4001C8.04163 3.4001 8.39981 3.75827 8.39981 4.2001C8.39981 4.64193 8.04163 5.0001 7.59981 5.0001C7.15798 5.0001 6.79981 4.64193 6.79981 4.2001Z" fill="white"/>
</svg>
