<svg width="16" height="16" viewBox="0 0 16 16" fill="none" xmlns="http://www.w3.org/2000/svg">
<path d="M6.7689 1.5181L7.56062 1.82969C7.84304 1.94083 8.1571 1.94083 8.43952 1.82969L9.23125 1.5181C10.2003 1.13673 11.2974 1.59114 11.7129 2.54605L12.0525 3.32621C12.1736 3.60451 12.3956 3.82658 12.6739 3.94769L13.4541 4.2872C14.409 4.70276 14.8634 5.79982 14.482 6.7689L14.1705 7.56062C14.0593 7.84304 14.0593 8.1571 14.1705 8.43952L14.482 9.23125C14.8634 10.2003 14.409 11.2974 13.4541 11.7129L12.6739 12.0525C12.3956 12.1736 12.1736 12.3956 12.0525 12.6739L11.7129 13.4541C11.2974 14.409 10.2003 14.8634 9.23125 14.482L8.43952 14.1705C8.1571 14.0593 7.84304 14.0593 7.56062 14.1705L6.7689 14.482C5.79982 14.8634 4.70276 14.409 4.2872 13.4541L3.94769 12.6739C3.82658 12.3956 3.60451 12.1736 3.32621 12.0525L2.54605 11.7129C1.59114 11.2974 1.13673 10.2003 1.5181 9.23125L1.82969 8.43952C1.94083 8.1571 1.94083 7.84304 1.82969 7.56062L1.5181 6.7689C1.13673 5.79982 1.59114 4.70276 2.54605 4.2872L3.32621 3.94769C3.60451 3.82658 3.82658 3.60451 3.94769 3.32621L4.2872 2.54605C4.70276 1.59114 5.79982 1.13673 6.7689 1.5181ZM10.0679 6.13433L7.14973 9.41726L5.8497 8.11723C5.69349 7.96102 5.44022 7.96102 5.28401 8.11723C5.1278 8.27344 5.1278 8.5267 5.28401 8.68291L6.88401 10.2829C7.04675 10.4457 7.31291 10.4378 7.46582 10.2658L10.6658 6.66582C10.8126 6.5007 10.7977 6.24787 10.6326 6.10111C10.4675 5.95434 10.2147 5.96921 10.0679 6.13433Z" fill="#2575C6"/>
<path d="M10.068 6.13426L7.14987 9.41719L5.84983 8.11716C5.69363 7.96095 5.44036 7.96095 5.28415 8.11716C5.12794 8.27337 5.12794 8.52664 5.28415 8.68285L6.88415 10.2828C7.04689 10.4456 7.31305 10.4378 7.46596 10.2657L10.666 6.66575C10.8127 6.50064 10.7979 6.24781 10.6327 6.10104C10.4676 5.95427 10.2148 5.96915 10.068 6.13426Z" fill="white"/>
</svg>
