<svg width="12" height="12" viewBox="0 0 12 12" fill="none" xmlns="http://www.w3.org/2000/svg">
<path d="M1.9999 0.399902C1.11625 0.399902 0.399902 1.11625 0.399902 1.9999V9.9999C0.399902 10.8836 1.11625 11.5999 1.9999 11.5999C2.88356 11.5999 3.5999 10.8836 3.5999 9.9999V1.9999C3.5999 1.11625 2.88356 0.399902 1.9999 0.399902ZM5.9999 2.7999C5.11625 2.7999 4.3999 3.51625 4.3999 4.3999V9.9999C4.3999 10.8836 5.11625 11.5999 5.9999 11.5999C6.88356 11.5999 7.5999 10.8836 7.5999 9.9999V4.3999C7.5999 3.51625 6.88356 2.7999 5.9999 2.7999ZM9.9999 5.1999C9.11625 5.1999 8.3999 5.91625 8.3999 6.7999V9.9999C8.3999 10.8836 9.11625 11.5999 9.9999 11.5999C10.8836 11.5999 11.5999 10.8836 11.5999 9.9999V6.7999C11.5999 5.91625 10.8836 5.1999 9.9999 5.1999Z" fill="#0078D4"/>
</svg>
