<svg width="14" height="14" viewBox="0 0 14 14" fill="none" xmlns="http://www.w3.org/2000/svg">
<path d="M10.45 4.275C10.45 5.06201 9.81201 5.7 9.025 5.7C8.23799 5.7 7.6 5.06201 7.6 4.275C7.6 3.48799 8.23799 2.85 9.025 2.85C9.81201 2.85 10.45 3.48799 10.45 4.275ZM9.5 4.275C9.5 4.01266 9.28733 3.8 9.025 3.8C8.76266 3.8 8.55 4.01266 8.55 4.275C8.55 4.53733 8.76266 4.75 9.025 4.75C9.28733 4.75 9.5 4.53733 9.5 4.275ZM0 2.85C0 1.27599 1.27599 0 2.85 0H10.45C12.024 0 13.3 1.27599 13.3 2.85V10.45C13.3 12.024 12.024 13.3 10.45 13.3H2.85C1.27599 13.3 0 12.024 0 10.45V2.85ZM2.85 0.95C1.80066 0.95 0.95 1.80066 0.95 2.85V10.45C0.95 10.804 1.04681 11.1354 1.21541 11.4191L5.65125 7.06043C6.20565 6.51566 7.09434 6.51566 7.64875 7.06043L12.0846 11.4191C12.2532 11.1354 12.35 10.804 12.35 10.45V2.85C12.35 1.80066 11.4993 0.95 10.45 0.95H2.85ZM2.85 12.35H10.45C10.8007 12.35 11.1292 12.255 11.4112 12.0893L6.98292 7.73805C6.79811 7.55646 6.50188 7.55646 6.31708 7.73805L1.88883 12.0893C2.1708 12.255 2.49931 12.35 2.85 12.35Z" fill="white"/>
</svg>
