<svg width="10" height="13" viewBox="0 0 10 13" fill="none" xmlns="http://www.w3.org/2000/svg">
<path d="M5.0002 0.600098C6.32568 0.600098 7.4002 1.67461 7.4002 3.0001V3.8001H8.2002C9.08385 3.8001 9.8002 4.51644 9.8002 5.4001V11.0001C9.8002 11.8838 9.08385 12.6001 8.2002 12.6001H1.8002C0.91654 12.6001 0.200195 11.8838 0.200195 11.0001V5.4001C0.200195 4.51644 0.91654 3.8001 1.8002 3.8001H2.6002V3.0001C2.6002 1.67461 3.67471 0.600098 5.0002 0.600098ZM5.0002 7.4001C4.55837 7.4001 4.2002 7.75827 4.2002 8.2001C4.2002 8.64193 4.55837 9.0001 5.0002 9.0001C5.44202 9.0001 5.8002 8.64193 5.8002 8.2001C5.8002 7.75827 5.44202 7.4001 5.0002 7.4001ZM5.0002 2.2001C4.55837 2.2001 4.2002 2.55827 4.2002 3.0001V3.8001H5.8002V3.0001C5.8002 2.55827 5.44202 2.2001 5.0002 2.2001Z" fill="#6CCB5F"/>
</svg>
