<svg width="16" height="11" viewBox="0 0 16 11" fill="none" xmlns="http://www.w3.org/2000/svg">
<path d="M0.5 5C0.223858 5 0 5.22386 0 5.5C0 5.77614 0.223858 6 0.5 6V5ZM15.5 6C15.7761 6 16 5.77614 16 5.5C16 5.22386 15.7761 5 15.5 5V6ZM0.5 0C0.223858 0 0 0.223858 0 0.5C0 0.776142 0.223858 1 0.5 1V0ZM15.5 1C15.7761 1 16 0.776142 16 0.5C16 0.223858 15.7761 0 15.5 0V1ZM0.5 10C0.223858 10 0 10.2239 0 10.5C0 10.7761 0.223858 11 0.5 11V10ZM15.5 11C15.7761 11 16 10.7761 16 10.5C16 10.2239 15.7761 10 15.5 10V11ZM0.5 6H15.5V5H0.5V6ZM0.5 1H15.5V0H0.5V1ZM0.5 11H15.5V10H0.5V11Z" fill="white"/>
</svg>
