<svg width="14" height="13" viewBox="0 0 14 13" fill="none" xmlns="http://www.w3.org/2000/svg">
<path d="M7.8001 7.0001C8.68375 7.0001 9.4001 7.71644 9.4001 8.6001V9.8001C9.4001 11.4436 7.72966 12.6001 5.0001 12.6001C2.27053 12.6001 0.600098 11.4436 0.600098 9.8001V8.6001C0.600098 7.71644 1.31644 7.0001 2.2001 7.0001H7.8001ZM11.8001 7.0001C12.6838 7.0001 13.4001 7.71644 13.4001 8.6001V9.0001C13.4001 10.671 12.1455 11.8001 9.8001 11.8001C9.68705 11.8001 9.57654 11.7975 9.46858 11.7923C9.9001 11.2901 10.1552 10.6834 10.1947 9.99104L10.2001 9.8001V8.6001C10.2001 8.04658 10.0127 7.53683 9.69792 7.13081L9.58835 6.99939L11.8001 7.0001ZM5.0001 0.600098C6.5465 0.600098 7.8001 1.8537 7.8001 3.4001C7.8001 4.9465 6.5465 6.2001 5.0001 6.2001C3.4537 6.2001 2.2001 4.9465 2.2001 3.4001C2.2001 1.8537 3.4537 0.600098 5.0001 0.600098ZM10.6001 2.2001C11.7047 2.2001 12.6001 3.09553 12.6001 4.2001C12.6001 5.30467 11.7047 6.2001 10.6001 6.2001C9.49553 6.2001 8.6001 5.30467 8.6001 4.2001C8.6001 3.09553 9.49553 2.2001 10.6001 2.2001Z" fill="white"/>
</svg>
