<svg width="14" height="14" viewBox="0 0 14 14" fill="none" xmlns="http://www.w3.org/2000/svg">
<path d="M1.4001 7.0001C1.4001 3.9073 3.9073 1.4001 7.0001 1.4001C10.0929 1.4001 12.6001 3.9073 12.6001 7.0001V7.8001H9.8001C9.57918 7.8001 9.4001 7.97918 9.4001 8.2001V13.0001C9.4001 13.221 9.57918 13.4001 9.8001 13.4001H11.8001C12.6838 13.4001 13.4001 12.6838 13.4001 11.8001V7.0001C13.4001 3.46548 10.5347 0.600098 7.0001 0.600098C3.46548 0.600098 0.600098 3.46548 0.600098 7.0001V11.8001C0.600098 12.6838 1.31644 13.4001 2.2001 13.4001H4.2001C4.42101 13.4001 4.6001 13.221 4.6001 13.0001V8.2001C4.6001 7.97918 4.42101 7.8001 4.2001 7.8001H1.4001V7.0001Z" fill="#0F80D7"/>
</svg>
