<svg width="21" height="21" viewBox="0 0 21 21" fill="none" xmlns="http://www.w3.org/2000/svg">
<path d="M10.0016 0C15.5253 0 20.0031 4.47785 20.0031 10.0016C20.0031 15.5253 15.5253 20.0031 10.0016 20.0031C4.47785 20.0031 0 15.5253 0 10.0016C0 4.47785 4.47785 0 10.0016 0ZM10.0016 1.5C5.30627 1.5 1.5 5.30627 1.5 10.0016C1.5 14.6968 5.30627 18.5031 10.0016 18.5031C14.6968 18.5031 18.5031 14.6968 18.5031 10.0016C18.5031 5.30627 14.6968 1.5 10.0016 1.5ZM6.46329 12.7849C7.31243 13.8626 8.60344 14.5031 10.0015 14.5031C11.3978 14.5031 12.6872 13.8643 13.5365 12.789C13.7932 12.464 14.2649 12.4086 14.5899 12.6653C14.915 12.9221 14.9704 13.3937 14.7136 13.7187C13.5829 15.1504 11.8617 16.0031 10.0015 16.0031C8.1389 16.0031 6.41567 15.1481 5.28507 13.7132C5.02872 13.3878 5.08466 12.9163 5.41002 12.6599C5.73537 12.4036 6.20694 12.4595 6.46329 12.7849ZM7.002 6.75219C7.69196 6.75219 8.25129 7.31152 8.25129 8.00148C8.25129 8.69144 7.69196 9.25077 7.002 9.25077C6.31204 9.25077 5.75271 8.69144 5.75271 8.00148C5.75271 7.31152 6.31204 6.75219 7.002 6.75219ZM13.002 6.75219C13.692 6.75219 14.2513 7.31152 14.2513 8.00148C14.2513 8.69144 13.692 9.25077 13.002 9.25077C12.312 9.25077 11.7527 8.69144 11.7527 8.00148C11.7527 7.31152 12.312 6.75219 13.002 6.75219Z" fill="#8A8A8A"/>
</svg>
