<svg width="12" height="13" viewBox="0 0 12 13" fill="none" xmlns="http://www.w3.org/2000/svg">
<path d="M6.5 1C6.5 0.723858 6.27614 0.5 6 0.5C5.72386 0.5 5.5 0.723858 5.5 1L6.5 1ZM6 12L5.64645 12.3536C5.84171 12.5488 6.15829 12.5488 6.35355 12.3536L6 12ZM1.35355 6.64645C1.15829 6.45118 0.841709 6.45118 0.646447 6.64645C0.451184 6.84171 0.451184 7.15829 0.646447 7.35355L1.35355 6.64645ZM11.3536 7.35355C11.5488 7.15829 11.5488 6.84171 11.3536 6.64645C11.1583 6.45118 10.8417 6.45118 10.6464 6.64645L11.3536 7.35355ZM5.5 1L5.5 12H6.5L6.5 1L5.5 1ZM6.35355 11.6464L1.35355 6.64645L0.646447 7.35355L5.64645 12.3536L6.35355 11.6464ZM6.35355 12.3536L11.3536 7.35355L10.6464 6.64645L5.64645 11.6464L6.35355 12.3536Z" fill="white"/>
</svg>
