<svg width="10" height="10" viewBox="0 0 10 10" fill="none" xmlns="http://www.w3.org/2000/svg">
<path fill-rule="evenodd" clip-rule="evenodd" d="M0.146447 9.85355C0.341709 10.0488 0.658291 10.0488 0.853553 9.85355L3.54718 7.15993C4.22452 7.68646 5.07564 8 6 8C8.20914 8 10 6.20914 10 4C10 1.79086 8.20914 0 6 0C3.79086 0 2 1.79086 2 4C2 4.92436 2.31354 5.77548 2.84007 6.45282L0.146447 9.14645C-0.0488155 9.34171 -0.0488155 9.65829 0.146447 9.85355ZM6 7C7.65685 7 9 5.65685 9 4C9 2.34315 7.65685 1 6 1C4.34315 1 3 2.34315 3 4C3 5.65685 4.34315 7 6 7Z" fill="white" fill-opacity="0.786"/>
</svg>
